<svg width="206" height="34" viewBox="0 0 206 34" fill="none" xmlns="http://www.w3.org/2000/svg">
<path d="M57.6519 30.36C55.4439 30.36 53.5119 29.976 51.8559 29.208C50.2239 28.416 48.8559 27.372 47.7519 26.076C46.6479 24.756 45.8199 23.28 45.2679 21.648C44.7159 20.016 44.4399 18.348 44.4399 16.644C44.4399 14.964 44.7159 13.308 45.2679 11.676C45.8199 10.044 46.6479 8.57997 47.7519 7.28397C48.8559 5.96397 50.2239 4.91997 51.8559 4.15197C53.5119 3.38397 55.4439 2.99997 57.6519 2.99997C59.4999 2.99997 61.0719 3.23997 62.3679 3.71997C63.6879 4.17597 64.7799 4.77597 65.6439 5.51997C66.5319 6.23997 67.2399 7.01997 67.7679 7.85997C68.3199 8.67597 68.7279 9.45597 68.9919 10.2C69.2559 10.92 69.4239 11.52 69.4959 12C69.5919 12.456 69.6399 12.684 69.6399 12.684H64.1319C64.1319 12.684 64.0839 12.528 63.9879 12.216C63.9159 11.88 63.7599 11.484 63.5199 11.028C63.2799 10.548 62.9199 10.08 62.4399 9.62397C61.9839 9.16797 61.3599 8.78397 60.5679 8.47197C59.7999 8.13597 58.8399 7.96797 57.6879 7.96797C56.0319 7.96797 54.6399 8.39997 53.5119 9.26397C52.4079 10.104 51.5679 11.184 50.9919 12.504C50.4399 13.824 50.1639 15.204 50.1639 16.644C50.1639 18.084 50.4399 19.476 50.9919 20.82C51.5679 22.14 52.4079 23.232 53.5119 24.096C54.6399 24.936 56.0319 25.356 57.6879 25.356C58.8399 25.356 59.7999 25.2 60.5679 24.888C61.3599 24.576 61.9839 24.192 62.4399 23.736C62.9199 23.256 63.2799 22.788 63.5199 22.332C63.7599 21.852 63.9159 21.456 63.9879 21.144C64.0839 20.832 64.1319 20.676 64.1319 20.676H69.6399C69.6399 20.676 69.5919 20.916 69.4959 21.396C69.4239 21.852 69.2559 22.452 68.9919 23.196C68.7279 23.916 68.3199 24.696 67.7679 25.536C67.2399 26.352 66.5319 27.132 65.6439 27.876C64.7799 28.596 63.6879 29.196 62.3679 29.676C61.0719 30.132 59.4999 30.36 57.6519 30.36Z" fill="#E05252"/>
<path d="M76.4177 8.32797C75.4577 8.32797 74.6777 8.02797 74.0777 7.42797C73.4777 6.80397 73.1777 6.07197 73.1777 5.23197C73.1777 4.34397 73.4777 3.59997 74.0777 2.99997C74.6777 2.37597 75.4577 2.06397 76.4177 2.06397C77.3297 2.06397 78.0977 2.37597 78.7217 2.99997C79.3457 3.59997 79.6577 4.34397 79.6577 5.23197C79.6577 6.07197 79.3457 6.80397 78.7217 7.42797C78.0977 8.02797 77.3297 8.32797 76.4177 8.32797ZM73.6817 30V10.92H79.1537V30H73.6817Z" fill="#E05252"/>
<path d="M83.8301 30V10.92H89.3021V13.656H89.4821C89.6981 13.272 90.0101 12.84 90.4181 12.36C90.8501 11.88 91.4141 11.46 92.1101 11.1C92.8301 10.74 93.7421 10.56 94.8461 10.56C96.3341 10.56 97.5461 10.908 98.4821 11.604C99.4181 12.276 100.102 13.152 100.534 14.232C100.966 15.288 101.182 16.404 101.182 17.58V30H95.7101V18.516C95.7101 17.604 95.4581 16.8 94.9541 16.104C94.4741 15.408 93.6941 15.06 92.6141 15.06C91.7981 15.06 91.1501 15.252 90.6701 15.636C90.1901 16.02 89.8421 16.512 89.6261 17.112C89.4101 17.712 89.3021 18.348 89.3021 19.02V30H83.8301Z" fill="#E05252"/>
<path d="M114.639 30.36C112.959 30.36 111.507 30.084 110.283 29.532C109.059 28.956 108.051 28.2 107.259 27.264C106.467 26.304 105.867 25.236 105.459 24.06C105.075 22.884 104.883 21.672 104.883 20.424C104.883 19.224 105.063 18.048 105.423 16.896C105.807 15.72 106.383 14.652 107.151 13.692C107.943 12.732 108.939 11.976 110.139 11.424C111.363 10.848 112.803 10.56 114.459 10.56C116.211 10.56 117.759 10.944 119.103 11.712C120.471 12.48 121.539 13.62 122.307 15.132C123.075 16.62 123.459 18.432 123.459 20.568V21.9H110.391C110.463 23.052 110.859 24.048 111.579 24.888C112.323 25.728 113.343 26.148 114.639 26.148C115.383 26.148 115.983 26.04 116.439 25.824C116.919 25.584 117.291 25.32 117.555 25.032C117.819 24.72 117.999 24.444 118.095 24.204C118.191 23.964 118.239 23.844 118.239 23.844H123.279C123.279 23.844 123.219 24.072 123.099 24.528C123.003 24.96 122.787 25.5 122.451 26.148C122.115 26.796 121.623 27.444 120.975 28.092C120.351 28.74 119.523 29.28 118.491 29.712C117.459 30.144 116.175 30.36 114.639 30.36ZM110.391 18.588H118.203C118.131 17.268 117.735 16.284 117.015 15.636C116.295 14.988 115.407 14.664 114.351 14.664C113.295 14.664 112.395 15.012 111.651 15.708C110.907 16.38 110.487 17.34 110.391 18.588Z" fill="#E05252"/>
<path d="M127.538 30V3.35997H132.614L144.098 20.352V3.35997H149.606V30H144.458L133.046 13.476V30H127.538Z" fill="#E05252"/>
<path d="M163.688 30.36C161.552 30.36 159.74 29.904 158.252 28.992C156.764 28.056 155.624 26.844 154.832 25.356C154.064 23.844 153.68 22.212 153.68 20.46C153.68 18.708 154.064 17.088 154.832 15.6C155.624 14.088 156.764 12.876 158.252 11.964C159.74 11.028 161.552 10.56 163.688 10.56C165.824 10.56 167.636 11.028 169.124 11.964C170.612 12.876 171.74 14.088 172.508 15.6C173.3 17.088 173.696 18.708 173.696 20.46C173.696 22.212 173.3 23.844 172.508 25.356C171.74 26.844 170.612 28.056 169.124 28.992C167.636 29.904 165.824 30.36 163.688 30.36ZM163.688 25.896C164.648 25.896 165.452 25.644 166.1 25.14C166.772 24.636 167.288 23.976 167.648 23.16C168.008 22.32 168.188 21.42 168.188 20.46C168.188 19.476 168.008 18.576 167.648 17.76C167.288 16.944 166.772 16.284 166.1 15.78C165.452 15.276 164.648 15.024 163.688 15.024C162.728 15.024 161.912 15.276 161.24 15.78C160.568 16.284 160.052 16.944 159.692 17.76C159.356 18.576 159.188 19.476 159.188 20.46C159.188 21.42 159.356 22.32 159.692 23.16C160.052 23.976 160.568 24.636 161.24 25.14C161.912 25.644 162.728 25.896 163.688 25.896Z" fill="#E05252"/>
<path d="M181.322 30L175.418 10.92H180.89L184.31 23.304L188.018 10.92H192.986L196.694 23.304L200.114 10.92H205.586L199.682 30H193.886L190.502 18.84L187.118 30H181.322Z" fill="#E05252"/>
<path d="M32.7332 0.633301L26.1832 1.9333L30.7499 7.8333L34.0332 7.16663L32.7332 0.633301ZM21.2832 2.89997L17.9999 3.54997L22.5832 9.4333L25.8499 8.7833L21.2832 2.89997ZM13.1166 4.49997L9.83322 5.1833L14.4166 11.0666L17.6832 10.4166L13.1166 4.49997ZM4.93322 6.16663L3.29989 6.4833C2.43386 6.65633 1.67189 7.16597 1.18129 7.90031C0.690689 8.63465 0.511555 9.53367 0.683222 10.4L1.33322 13.6666L9.49989 12.05L4.93322 6.16663ZM1.33322 13.6666V30.3333C1.33322 32.1833 2.83322 33.6666 4.66656 33.6666H31.3332C33.1832 33.6666 34.6666 32.1833 34.6666 30.3333V13.6666H1.33322Z" fill="#E05252"/>
</svg>
